<mxfile host="app.diagrams.net" modified="2023-11-13T01:27:34.222Z" agent="Mozilla/5.0 (Windows NT 10.0; Win64; x64; rv:109.0) Gecko/20100101 Firefox/119.0" etag="d7gNLIp3oLd38bnEJZhh" version="22.1.0" type="device">
  <diagram name="Page-1" id="2YBvvXClWsGukQMizWep">
    <mxGraphModel dx="842" dy="506" grid="0" gridSize="10" guides="1" tooltips="1" connect="1" arrows="1" fold="1" page="1" pageScale="1" pageWidth="850" pageHeight="1100" math="0" shadow="0">
      <root>
        <mxCell id="0" />
        <mxCell id="1" parent="0" />
        <mxCell id="aM9ryv3xv72pqoxQDRHE-1" value="&lt;u&gt;:GameScreen&lt;/u&gt;" style="shape=umlLifeline;perimeter=lifelinePerimeter;whiteSpace=wrap;html=1;container=0;dropTarget=0;collapsible=0;recursiveResize=0;outlineConnect=0;portConstraint=eastwest;newEdgeStyle={&quot;edgeStyle&quot;:&quot;elbowEdgeStyle&quot;,&quot;elbow&quot;:&quot;vertical&quot;,&quot;curved&quot;:0,&quot;rounded&quot;:0};" parent="1" vertex="1">
          <mxGeometry x="128" y="48" width="100" height="223" as="geometry" />
        </mxCell>
        <mxCell id="aM9ryv3xv72pqoxQDRHE-2" value="" style="html=1;points=[];perimeter=orthogonalPerimeter;outlineConnect=0;targetShapes=umlLifeline;portConstraint=eastwest;newEdgeStyle={&quot;edgeStyle&quot;:&quot;elbowEdgeStyle&quot;,&quot;elbow&quot;:&quot;vertical&quot;,&quot;curved&quot;:0,&quot;rounded&quot;:0};" parent="aM9ryv3xv72pqoxQDRHE-1" vertex="1">
          <mxGeometry x="45" y="70" width="10" height="114" as="geometry" />
        </mxCell>
        <mxCell id="d4lGVF9wyn-gPRzwxiOz-11" style="edgeStyle=orthogonalEdgeStyle;rounded=0;orthogonalLoop=1;jettySize=auto;html=1;endArrow=none;endFill=0;dashed=1;" edge="1" parent="1" source="d4lGVF9wyn-gPRzwxiOz-12">
          <mxGeometry relative="1" as="geometry">
            <mxPoint x="52" y="272" as="targetPoint" />
          </mxGeometry>
        </mxCell>
        <mxCell id="d4lGVF9wyn-gPRzwxiOz-1" value="" style="shape=umlActor;verticalLabelPosition=bottom;verticalAlign=top;html=1;outlineConnect=0;" vertex="1" parent="1">
          <mxGeometry x="42" y="48" width="21" height="42" as="geometry" />
        </mxCell>
        <mxCell id="d4lGVF9wyn-gPRzwxiOz-13" value="" style="edgeStyle=orthogonalEdgeStyle;rounded=0;orthogonalLoop=1;jettySize=auto;html=1;endArrow=none;endFill=0;dashed=1;" edge="1" parent="1" source="d4lGVF9wyn-gPRzwxiOz-1" target="d4lGVF9wyn-gPRzwxiOz-12">
          <mxGeometry relative="1" as="geometry">
            <mxPoint x="52.5" y="350.66666666666674" as="targetPoint" />
            <mxPoint x="53" y="90" as="sourcePoint" />
          </mxGeometry>
        </mxCell>
        <mxCell id="d4lGVF9wyn-gPRzwxiOz-12" value="" style="rounded=0;whiteSpace=wrap;html=1;" vertex="1" parent="1">
          <mxGeometry x="45.5" y="118" width="14" height="119" as="geometry" />
        </mxCell>
        <mxCell id="d4lGVF9wyn-gPRzwxiOz-17" value="setCpuPlayerOn" style="html=1;verticalAlign=bottom;endArrow=classic;edgeStyle=elbowEdgeStyle;elbow=vertical;curved=0;rounded=0;endFill=1;" edge="1" parent="1">
          <mxGeometry relative="1" as="geometry">
            <mxPoint x="59.5" y="132" as="sourcePoint" />
            <Array as="points">
              <mxPoint x="144.5" y="132" />
            </Array>
            <mxPoint x="173" y="133" as="targetPoint" />
          </mxGeometry>
        </mxCell>
      </root>
    </mxGraphModel>
  </diagram>
</mxfile>
